<svg xmlns="http://www.w3.org/2000/svg" viewBox="0 0 64 80">
  <!-- Shield shape - cream/gold background -->
  <path d="M4 4 L60 4 L60 44 Q60 64 32 76 Q4 64 4 44 Z" fill="#F5E6C8" stroke="#8B4513" stroke-width="2"/>

  <!-- Crown -->
  <path d="M16 2 L20 8 L26 4 L32 10 L38 4 L44 8 L48 2 L50 12 L14 12 Z" fill="#C9A227" stroke="#8B6914" stroke-width="1"/>
  <rect x="14" y="10" width="36" height="4" fill="#C9A227" stroke="#8B6914" stroke-width="0.5"/>
  <!-- Crown jewels -->
  <circle cx="24" cy="6" r="1.5" fill="#D62612"/>
  <circle cx="40" cy="6" r="1.5" fill="#D62612"/>
  <circle cx="32" cy="8" r="1.5" fill="#2D5A9E"/>

  <!-- Rampant Lion - dark red -->
  <g fill="#8B1A1A" stroke="#4A0E0E" stroke-width="0.5">
    <!-- Body -->
    <path d="M28 52 Q24 44 26 36 Q28 30 32 28 Q36 30 38 36 Q40 44 36 52 Q32 56 28 52"/>
    <!-- Head -->
    <ellipse cx="24" cy="28" rx="6" ry="5"/>
    <!-- Mane -->
    <path d="M20 24 Q16 22 18 28 Q16 32 20 32 Q18 36 22 34" fill="#8B1A1A"/>
    <!-- Front raised leg -->
    <path d="M26 32 L18 24 L16 26 L22 32" fill="#8B1A1A"/>
    <!-- Front lower leg -->
    <path d="M28 40 L22 48 L24 50 L30 42" fill="#8B1A1A"/>
    <!-- Back raised leg -->
    <path d="M38 34 L46 28 L48 30 L40 36" fill="#8B1A1A"/>
    <!-- Back lower leg -->
    <path d="M36 48 L40 58 L38 60 L34 50" fill="#8B1A1A"/>
    <!-- Tail -->
    <path d="M38 44 Q44 40 48 44 Q52 48 48 52 Q46 50 48 46 Q44 44 40 46" fill="#8B1A1A"/>
    <!-- Tongue -->
    <path d="M18 28 L14 30 L14 32" stroke="#D62612" stroke-width="1.5" fill="none"/>
  </g>
</svg>
